<svg width="105" height="22" viewBox="0 0 105 22" fill="none" xmlns="http://www.w3.org/2000/svg">
<path d="M19.2198 9.55707L15.5284 12.7423L16.653 17.5059C16.7151 17.7645 16.6991 18.0357 16.6071 18.2852C16.5151 18.5347 16.3512 18.7514 16.1362 18.9078C15.9211 19.0642 15.6645 19.1534 15.3988 19.164C15.1331 19.1747 14.8702 19.1064 14.6433 18.9677L10.5007 16.4182L6.35564 18.9677C6.12877 19.1056 5.86616 19.1733 5.6009 19.1622C5.33564 19.1511 5.07959 19.0618 4.86497 18.9056C4.65036 18.7493 4.48679 18.533 4.39485 18.2839C4.30292 18.0348 4.28673 17.7641 4.34834 17.5059L5.47709 12.7423L1.78568 9.55707C1.58495 9.38359 1.43978 9.15481 1.36829 8.8993C1.29681 8.6438 1.30218 8.3729 1.38374 8.12043C1.4653 7.86797 1.61943 7.64512 1.82688 7.47973C2.03434 7.31434 2.28592 7.21373 2.55021 7.19047L7.39006 6.8L9.25709 2.28172C9.35814 2.03548 9.53014 1.82485 9.75122 1.67661C9.97229 1.52837 10.2325 1.44922 10.4986 1.44922C10.7648 1.44922 11.025 1.52837 11.246 1.67661C11.4671 1.82485 11.6391 2.03548 11.7402 2.28172L13.6064 6.8L18.4462 7.19047C18.711 7.21287 18.9634 7.31292 19.1716 7.47808C19.3798 7.64324 19.5346 7.86617 19.6167 8.11895C19.6987 8.37172 19.7044 8.64309 19.6329 8.89906C19.5614 9.15503 19.416 9.38421 19.2149 9.55789L19.2198 9.55707Z" fill="#FFA800"/>
<path d="M40.2198 9.55707L36.5284 12.7423L37.653 17.5059C37.7151 17.7645 37.6991 18.0357 37.6071 18.2852C37.5151 18.5347 37.3512 18.7514 37.1362 18.9078C36.9211 19.0642 36.6645 19.1534 36.3988 19.164C36.1331 19.1747 35.8702 19.1064 35.6433 18.9677L31.5007 16.4182L27.3556 18.9677C27.1288 19.1056 26.8662 19.1733 26.6009 19.1622C26.3356 19.1511 26.0796 19.0618 25.865 18.9056C25.6504 18.7493 25.4868 18.533 25.3949 18.2839C25.3029 18.0348 25.2867 17.7641 25.3483 17.5059L26.4771 12.7423L22.7857 9.55707C22.5849 9.38359 22.4398 9.15481 22.3683 8.8993C22.2968 8.6438 22.3022 8.3729 22.3837 8.12043C22.4653 7.86797 22.6194 7.64512 22.8269 7.47973C23.0343 7.31434 23.2859 7.21373 23.5502 7.19047L28.3901 6.8L30.2571 2.28172C30.3581 2.03548 30.5301 1.82485 30.7512 1.67661C30.9723 1.52837 31.2325 1.44922 31.4986 1.44922C31.7648 1.44922 32.025 1.52837 32.246 1.67661C32.4671 1.82485 32.6391 2.03548 32.7402 2.28172L34.6064 6.8L39.4462 7.19047C39.711 7.21287 39.9634 7.31292 40.1716 7.47808C40.3798 7.64324 40.5346 7.86617 40.6167 8.11895C40.6987 8.37172 40.7044 8.64309 40.6329 8.89906C40.5614 9.15503 40.416 9.38421 40.2149 9.55789L40.2198 9.55707Z" fill="#FFA800"/>
<path d="M61.2198 9.55707L57.5284 12.7423L58.653 17.5059C58.7151 17.7645 58.6991 18.0357 58.6071 18.2852C58.5151 18.5347 58.3512 18.7514 58.1362 18.9078C57.9211 19.0642 57.6645 19.1534 57.3988 19.164C57.1331 19.1747 56.8702 19.1064 56.6433 18.9677L52.5007 16.4182L48.3556 18.9677C48.1288 19.1056 47.8662 19.1733 47.6009 19.1622C47.3356 19.1511 47.0796 19.0618 46.865 18.9056C46.6504 18.7493 46.4868 18.533 46.3949 18.2839C46.3029 18.0348 46.2867 17.7641 46.3483 17.5059L47.4771 12.7423L43.7857 9.55707C43.5849 9.38359 43.4398 9.15481 43.3683 8.8993C43.2968 8.6438 43.3022 8.3729 43.3837 8.12043C43.4653 7.86797 43.6194 7.64512 43.8269 7.47973C44.0343 7.31434 44.2859 7.21373 44.5502 7.19047L49.3901 6.8L51.2571 2.28172C51.3581 2.03548 51.5301 1.82485 51.7512 1.67661C51.9723 1.52837 52.2325 1.44922 52.4986 1.44922C52.7648 1.44922 53.025 1.52837 53.246 1.67661C53.4671 1.82485 53.6391 2.03548 53.7402 2.28172L55.6064 6.8L60.4462 7.19047C60.711 7.21287 60.9634 7.31292 61.1716 7.47808C61.3798 7.64324 61.5346 7.86617 61.6167 8.11895C61.6987 8.37172 61.7044 8.64309 61.6329 8.89906C61.5614 9.15503 61.416 9.38421 61.2149 9.55789L61.2198 9.55707Z" fill="#FFA800"/>
<path d="M82.2198 9.55707L78.5284 12.7423L79.653 17.5059C79.7151 17.7645 79.6991 18.0357 79.6071 18.2852C79.5151 18.5347 79.3512 18.7514 79.1362 18.9078C78.9211 19.0642 78.6645 19.1534 78.3988 19.164C78.1331 19.1747 77.8702 19.1064 77.6433 18.9677L73.5007 16.4182L69.3556 18.9677C69.1288 19.1056 68.8662 19.1733 68.6009 19.1622C68.3356 19.1511 68.0796 19.0618 67.865 18.9056C67.6504 18.7493 67.4868 18.533 67.3949 18.2839C67.3029 18.0348 67.2867 17.7641 67.3483 17.5059L68.4771 12.7423L64.7857 9.55707C64.5849 9.38359 64.4398 9.15481 64.3683 8.8993C64.2968 8.6438 64.3022 8.3729 64.3837 8.12043C64.4653 7.86797 64.6194 7.64512 64.8269 7.47973C65.0343 7.31434 65.2859 7.21373 65.5502 7.19047L70.3901 6.8L72.2571 2.28172C72.3581 2.03548 72.5301 1.82485 72.7512 1.67661C72.9723 1.52837 73.2325 1.44922 73.4986 1.44922C73.7648 1.44922 74.025 1.52837 74.246 1.67661C74.4671 1.82485 74.6391 2.03548 74.7402 2.28172L76.6064 6.8L81.4462 7.19047C81.711 7.21287 81.9634 7.31292 82.1716 7.47808C82.3798 7.64324 82.5346 7.86617 82.6167 8.11895C82.6987 8.37172 82.7044 8.64309 82.6329 8.89906C82.5614 9.15503 82.416 9.38421 82.2149 9.55789L82.2198 9.55707Z" fill="#FFA800"/>
<path d="M103.22 9.55707L99.5284 12.7423L100.653 17.5059C100.715 17.7645 100.699 18.0357 100.607 18.2852C100.515 18.5347 100.351 18.7514 100.136 18.9078C99.9211 19.0642 99.6645 19.1534 99.3988 19.164C99.1331 19.1747 98.8702 19.1064 98.6433 18.9677L94.5007 16.4182L90.3556 18.9677C90.1288 19.1056 89.8662 19.1733 89.6009 19.1622C89.3356 19.1511 89.0796 19.0618 88.865 18.9056C88.6504 18.7493 88.4868 18.533 88.3949 18.2839C88.3029 18.0348 88.2867 17.7641 88.3483 17.5059L89.4771 12.7423L85.7857 9.55707C85.5849 9.38359 85.4398 9.15481 85.3683 8.8993C85.2968 8.6438 85.3022 8.3729 85.3837 8.12043C85.4653 7.86797 85.6194 7.64512 85.8269 7.47973C86.0343 7.31434 86.2859 7.21373 86.5502 7.19047L91.3901 6.8L93.2571 2.28172C93.3581 2.03548 93.5301 1.82485 93.7512 1.67661C93.9723 1.52837 94.2325 1.44922 94.4986 1.44922C94.7648 1.44922 95.025 1.52837 95.246 1.67661C95.4671 1.82485 95.6391 2.03548 95.7402 2.28172L97.6064 6.8L102.446 7.19047C102.711 7.21287 102.963 7.31292 103.172 7.47808C103.38 7.64324 103.535 7.86617 103.617 8.11895C103.699 8.37172 103.704 8.64309 103.633 8.89906C103.561 9.15503 103.416 9.38421 103.215 9.55789L103.22 9.55707Z" fill="#FFA800"/>
</svg>
