<svg width="30" height="31" viewBox="0 0 30 31" fill="none" xmlns="http://www.w3.org/2000/svg">
<path d="M26.7592 25.1908L21.2461 19.6777C22.5734 17.9108 23.29 15.76 23.2875 13.55C23.2875 7.90508 18.6949 3.3125 13.05 3.3125C7.40508 3.3125 2.8125 7.90508 2.8125 13.55C2.8125 19.1949 7.40508 23.7875 13.05 23.7875C15.26 23.79 17.4108 23.0734 19.1777 21.7461L24.6908 27.2592C24.9699 27.5086 25.3339 27.6418 25.708 27.6313C26.0822 27.6209 26.4382 27.4676 26.7029 27.2029C26.9676 26.9382 27.1209 26.5822 27.1313 26.208C27.1418 25.8339 27.0086 25.4699 26.7592 25.1908ZM5.7375 13.55C5.7375 12.1037 6.16637 10.6899 6.96988 9.48739C7.77339 8.28486 8.91544 7.3476 10.2516 6.79413C11.5878 6.24067 13.0581 6.09585 14.4766 6.37801C15.8951 6.66016 17.198 7.35661 18.2207 8.37928C19.2434 9.40195 19.9398 10.7049 20.222 12.1234C20.5041 13.5419 20.3593 15.0122 19.8059 16.3484C19.2524 17.6846 18.3151 18.8266 17.1126 19.6301C15.9101 20.4336 14.4963 20.8625 13.05 20.8625C11.1113 20.8602 9.25271 20.089 7.88185 18.7181C6.51099 17.3473 5.73983 15.4887 5.7375 13.55Z" fill="white"/>
</svg>
