<svg width="41" height="40" viewBox="0 0 41 40" fill="none" xmlns="http://www.w3.org/2000/svg">
<path d="M37.9331 10.0003C36.6497 10.5837 35.2664 10.967 33.8331 11.1503C35.2997 10.267 36.4331 8.86699 36.9664 7.18366C35.5831 8.01699 34.0497 8.60033 32.4331 8.93366C31.1164 7.50033 29.2664 6.66699 27.1664 6.66699C23.2497 6.66699 20.0497 9.86699 20.0497 13.817C20.0497 14.3837 20.1164 14.9337 20.2331 15.4503C14.2997 15.1503 9.01641 12.3003 5.49974 7.98366C4.88307 9.03366 4.53307 10.267 4.53307 11.567C4.53307 14.0503 5.78307 16.2503 7.71641 17.5003C6.53307 17.5003 5.43307 17.167 4.46641 16.667V16.717C4.46641 20.1837 6.93307 23.0837 10.1997 23.7337C9.15114 24.0219 8.0498 24.0618 6.98307 23.8503C7.43575 25.2711 8.3223 26.5143 9.5181 27.4052C10.7139 28.2961 12.1588 28.7898 13.6497 28.817C11.1225 30.8178 7.98975 31.8993 4.76641 31.8837C4.19974 31.8837 3.63307 31.8503 3.06641 31.7837C6.23307 33.817 9.99974 35.0003 14.0331 35.0003C27.1664 35.0003 34.3831 24.1003 34.3831 14.6503C34.3831 14.3337 34.3831 14.0337 34.3664 13.717C35.7664 12.717 36.9664 11.4503 37.9331 10.0003Z" fill="black"/>
</svg>
