<svg width="41" height="40" viewBox="0 0 41 40" fill="none" xmlns="http://www.w3.org/2000/svg">
<path d="M35.334 3.33301H5.66732C5.18109 3.33301 4.71477 3.52616 4.37096 3.86998C4.02714 4.2138 3.83398 4.68011 3.83398 5.16634V34.833C3.83398 35.3192 4.02714 35.7856 4.37096 36.1294C4.71477 36.4732 5.18109 36.6663 5.66732 36.6663H21.634V23.7497H17.3007V18.7497H21.634V14.9997C21.5442 14.1193 21.6482 13.2299 21.9385 12.3939C22.2289 11.5579 22.6986 10.7956 23.3148 10.1604C23.9309 9.52514 24.6786 9.03241 25.5054 8.71674C26.3321 8.40107 27.2179 8.27009 28.1006 8.33301C29.3979 8.32502 30.6945 8.3918 31.984 8.53301V13.033H29.334C27.234 13.033 26.834 14.033 26.834 15.483V18.6997H31.834L31.184 23.6997H26.834V36.6663H35.334C35.5747 36.6663 35.8131 36.6189 36.0356 36.5268C36.258 36.4347 36.4601 36.2996 36.6303 36.1294C36.8006 35.9591 36.9356 35.757 37.0278 35.5346C37.1199 35.3122 37.1673 35.0738 37.1673 34.833V5.16634C37.1673 4.92558 37.1199 4.68719 37.0278 4.46475C36.9356 4.24232 36.8006 4.04022 36.6303 3.86998C36.4601 3.69974 36.258 3.5647 36.0356 3.47256C35.8131 3.38043 35.5747 3.33301 35.334 3.33301Z" fill="black"/>
</svg>
