<svg width="41" height="40" viewBox="0 0 41 40" fill="none" xmlns="http://www.w3.org/2000/svg">
<path d="M20.5007 15.8663C19.6832 15.8663 18.884 16.1088 18.2043 16.5629C17.5246 17.0171 16.9948 17.6626 16.6819 18.4179C16.3691 19.1732 16.2873 20.0043 16.4467 20.806C16.6062 21.6078 16.9999 22.3443 17.5779 22.9224C18.156 23.5004 18.8925 23.8941 19.6943 24.0536C20.4961 24.2131 21.3271 24.1312 22.0824 23.8184C22.8377 23.5055 23.4832 22.9758 23.9374 22.296C24.3916 21.6163 24.634 20.8172 24.634 19.9997C24.634 19.4569 24.5271 18.9194 24.3194 18.4179C24.1116 17.9164 23.8072 17.4608 23.4234 17.077C23.0395 16.6932 22.5839 16.3887 22.0824 16.181C21.5809 15.9733 21.0434 15.8663 20.5007 15.8663ZM37.0507 11.783C37.0419 10.4959 36.8049 9.22063 36.3507 8.01634C36.0161 7.13511 35.4985 6.33483 34.832 5.66832C34.1655 5.0018 33.3652 4.4842 32.484 4.14967C31.2797 3.69545 30.0044 3.45844 28.7173 3.44967C26.5673 3.33301 25.934 3.33301 20.5007 3.33301C15.0673 3.33301 14.434 3.33301 12.284 3.44967C10.9969 3.45844 9.7216 3.69545 8.51732 4.14967C7.63608 4.4842 6.83581 5.0018 6.16929 5.66832C5.50278 6.33483 4.98518 7.13511 4.65065 8.01634C4.19642 9.22063 3.95942 10.4959 3.95065 11.783C3.83398 13.933 3.83398 14.5663 3.83398 19.9997C3.83398 25.433 3.83398 26.0663 3.95065 28.2163C3.96859 29.5079 4.20527 30.7872 4.65065 31.9997C4.9837 32.8769 5.50087 33.6725 6.16732 34.333C6.83097 35.0035 7.63297 35.5211 8.51732 35.8497C9.7216 36.3039 10.9969 36.5409 12.284 36.5497C14.434 36.6663 15.0673 36.6663 20.5007 36.6663C25.934 36.6663 26.5673 36.6663 28.7173 36.5497C30.0044 36.5409 31.2797 36.3039 32.484 35.8497C33.3683 35.5211 34.1703 35.0035 34.834 34.333C35.5004 33.6725 36.0176 32.8769 36.3507 31.9997C36.8044 30.7895 37.0414 29.5088 37.0507 28.2163C37.1673 26.0663 37.1673 25.433 37.1673 19.9997C37.1673 14.5663 37.1673 13.933 37.0507 11.783ZM32.8173 25.1163C32.7638 26.1448 32.5443 27.1579 32.1673 28.1163C31.8438 28.9158 31.3628 29.6421 30.7529 30.2519C30.143 30.8618 29.4168 31.3428 28.6173 31.6663C27.6498 32.0223 26.6311 32.2193 25.6007 32.2497H15.4007C14.3702 32.2193 13.3515 32.0223 12.384 31.6663C11.5575 31.3592 10.8111 30.8692 10.2007 30.233C9.59676 29.6351 9.13039 28.9128 8.83398 28.1163C8.47658 27.1499 8.285 26.13 8.26732 25.0997V14.8997C8.285 13.8694 8.47658 12.8495 8.83398 11.883C9.14112 11.0565 9.63111 10.3101 10.2673 9.69968C10.8679 9.09905 11.5894 8.63316 12.384 8.33301C13.3515 7.97702 14.3702 7.78002 15.4007 7.74967H25.6007C26.6311 7.78002 27.6498 7.97702 28.6173 8.33301C29.4438 8.64014 30.1902 9.13013 30.8007 9.76634C31.4045 10.3643 31.8709 11.0866 32.1673 11.883C32.5233 12.8505 32.7203 13.8692 32.7507 14.8997V19.9997C32.7507 23.433 32.8673 23.783 32.8173 25.0997V25.1163ZM30.1507 12.7163C29.9522 12.178 29.6393 11.6891 29.2336 11.2834C28.8279 10.8776 28.339 10.5648 27.8006 10.3663C27.0614 10.1101 26.2829 9.98599 25.5007 9.99967H15.5007C14.7144 10.0074 13.9358 10.1541 13.2007 10.433C12.6705 10.6224 12.1868 10.9225 11.7816 11.3133C11.3764 11.7042 11.0591 12.1767 10.8507 12.6997C10.6086 13.442 10.4904 14.219 10.5007 14.9997V24.9997C10.5172 25.785 10.6636 26.5622 10.934 27.2997C11.1324 27.838 11.4453 28.3269 11.851 28.7327C12.2567 29.1384 12.7456 29.4512 13.284 29.6497C13.9951 29.9112 14.7434 30.0575 15.5007 30.083H25.5007C26.2869 30.0753 27.0655 29.9286 27.8006 29.6497C28.339 29.4512 28.8279 29.1384 29.2336 28.7327C29.6393 28.3269 29.9522 27.838 30.1507 27.2997C30.4296 26.5646 30.5763 25.7859 30.584 24.9997V14.9997C30.5845 14.2127 30.4375 13.4325 30.1507 12.6997V12.7163ZM20.5007 26.3663C19.6654 26.3663 18.8383 26.2015 18.0668 25.8814C17.2952 25.5612 16.5945 25.092 16.0046 24.5006C15.4147 23.9092 14.9474 23.2072 14.6292 22.4348C14.3111 21.6625 14.1485 20.835 14.1507 19.9997C14.1507 18.7398 14.5245 17.5082 15.2248 16.4608C15.9251 15.4135 16.9204 14.5974 18.0848 14.1161C19.2491 13.6347 20.5301 13.5096 21.7655 13.7566C23.001 14.0036 24.1354 14.6116 25.0251 15.5037C25.9149 16.3958 26.5199 17.5317 26.7637 18.7678C27.0075 20.004 26.879 21.2846 26.3946 22.4477C25.9101 23.6107 25.0915 24.6039 24.0423 25.3015C22.9931 25.999 21.7606 26.3696 20.5007 26.3663ZM27.1673 14.883C26.7989 14.844 26.4579 14.67 26.2101 14.3946C25.9623 14.1192 25.8252 13.7618 25.8252 13.3913C25.8252 13.0209 25.9623 12.6635 26.2101 12.3881C26.4579 12.1126 26.7989 11.9387 27.1673 11.8997C27.5357 11.9387 27.8767 12.1126 28.1245 12.3881C28.3723 12.6635 28.5094 13.0209 28.5094 13.3913C28.5094 13.7618 28.3723 14.1192 28.1245 14.3946C27.8767 14.67 27.5357 14.844 27.1673 14.883Z" fill="black"/>
</svg>
